<svg xmlns="http://www.w3.org/2000/svg" width="2680" height="945" viewBox="0 0 2680 945" font-family="Helvetica,Arial,sans-serif">
<defs><marker id="ar" markerWidth="10" markerHeight="10" refX="9" refY="3.2" orient="auto"><path d="M0,0 L0,6.4 L9,3.2 z" fill="#333"/></marker></defs>
<rect width="2680" height="945" fill="#fff"/>
<text x="70" y="46" font-size="17" font-weight="bold">Proceso TO-BE — Ejecución de obra con SINCOCO</text>
<rect x="70" y="70" width="2560" height="825" fill="none" stroke="#000" stroke-width="2"/>
<rect x="70" y="70" width="34" height="165" fill="#f0f0f0" stroke="#000" stroke-width="1.2"/>
<text x="87.0" y="152.5" font-size="12.5" font-weight="bold" text-anchor="middle" dominant-baseline="middle" transform="rotate(-90 87.0 152.5)">GERENTE</text>
<rect x="70" y="235" width="34" height="165" fill="#f0f0f0" stroke="#000" stroke-width="1.2"/>
<text x="87.0" y="317.5" font-size="12.5" font-weight="bold" text-anchor="middle" dominant-baseline="middle" transform="rotate(-90 87.0 317.5)">MAESTRO DE OBRA</text>
<line x1="70" y1="235" x2="2630" y2="235" stroke="#000" stroke-width="1.2"/>
<rect x="70" y="400" width="34" height="165" fill="#f0f0f0" stroke="#000" stroke-width="1.2"/>
<text x="87.0" y="482.5" font-size="12.5" font-weight="bold" text-anchor="middle" dominant-baseline="middle" transform="rotate(-90 87.0 482.5)">TRABAJADOR</text>
<line x1="70" y1="400" x2="2630" y2="400" stroke="#000" stroke-width="1.2"/>
<rect x="70" y="565" width="34" height="165" fill="#f0f0f0" stroke="#000" stroke-width="1.2"/>
<text x="87.0" y="647.5" font-size="12.5" font-weight="bold" text-anchor="middle" dominant-baseline="middle" transform="rotate(-90 87.0 647.5)">ENCARGADO DE BODEGA</text>
<line x1="70" y1="565" x2="2630" y2="565" stroke="#000" stroke-width="1.2"/>
<rect x="70" y="730" width="34" height="165" fill="#f0f0f0" stroke="#000" stroke-width="1.2"/>
<text x="87.0" y="812.5" font-size="12.5" font-weight="bold" text-anchor="middle" dominant-baseline="middle" transform="rotate(-90 87.0 812.5)">PROVEEDOR</text>
<line x1="70" y1="730" x2="2630" y2="730" stroke="#000" stroke-width="1.2"/>
<circle cx="166.0" cy="152.5" r="22.0" fill="#d5e8d4" stroke="#82b366" stroke-width="2.2"/>
<rect x="224" y="120.5" width="175" height="64" rx="10" fill="#fff2cc" stroke="#d6b656" stroke-width="1.8"/>
<text x="311.5" y="150.0" font-size="12.5" text-anchor="middle">Registrar proyecto</text>
<text x="311.5" y="165.0" font-size="12.5" text-anchor="middle">en SINCOCO</text>
<rect x="434" y="120.5" width="175" height="64" rx="10" fill="#fff2cc" stroke="#d6b656" stroke-width="1.8"/>
<text x="521.5" y="150.0" font-size="12.5" text-anchor="middle">Asignar maestro</text>
<text x="521.5" y="165.0" font-size="12.5" text-anchor="middle">responsable</text>
<rect x="644" y="285.5" width="175" height="64" rx="10" fill="#fff2cc" stroke="#d6b656" stroke-width="1.8"/>
<text x="731.5" y="315.0" font-size="12.5" text-anchor="middle">Definir etapas</text>
<text x="731.5" y="330.0" font-size="12.5" text-anchor="middle">y actividades</text>
<rect x="854" y="285.5" width="175" height="64" rx="10" fill="#fff2cc" stroke="#d6b656" stroke-width="1.8"/>
<text x="941.5" y="315.0" font-size="12.5" text-anchor="middle">Solicitar materiales</text>
<text x="941.5" y="330.0" font-size="12.5" text-anchor="middle">desde el sistema</text>
<rect x="1064" y="615.5" width="185" height="64" rx="10" fill="#fff2cc" stroke="#d6b656" stroke-width="1.8"/>
<text x="1156.5" y="645.0" font-size="12.5" text-anchor="middle">Recibir solicitud</text>
<text x="1156.5" y="660.0" font-size="12.5" text-anchor="middle">registrada en SINCOCO</text>
<polygon points="1320.0,621.5 1346.0,647.5 1320.0,673.5 1294.0,647.5" fill="#f8cecc" stroke="#b85450" stroke-width="2"/>
<path d="M1311.0,638.5 L1329.0,656.5 M1329.0,638.5 L1311.0,656.5" stroke="#b85450" stroke-width="2.4"/>
<rect x="1394" y="573.5" width="175" height="64" rx="10" fill="#fff2cc" stroke="#d6b656" stroke-width="1.8"/>
<text x="1481.5" y="603.0" font-size="12.5" text-anchor="middle">Despachar y</text>
<text x="1481.5" y="618.0" font-size="12.5" text-anchor="middle">registrar salida</text>
<rect x="1394" y="657.5" width="175" height="64" rx="10" fill="#fff2cc" stroke="#d6b656" stroke-width="1.8"/>
<text x="1481.5" y="687.0" font-size="12.5" text-anchor="middle">Generar alerta</text>
<text x="1481.5" y="702.0" font-size="12.5" text-anchor="middle">de stock mínimo</text>
<rect x="1614" y="780.5" width="175" height="64" rx="10" fill="#fff2cc" stroke="#d6b656" stroke-width="1.8"/>
<text x="1701.5" y="810.0" font-size="12.5" text-anchor="middle">Recibir orden</text>
<text x="1701.5" y="825.0" font-size="12.5" text-anchor="middle">de compra</text>
<rect x="1824" y="780.5" width="175" height="64" rx="10" fill="#fff2cc" stroke="#d6b656" stroke-width="1.8"/>
<text x="1911.5" y="817.5" font-size="12.5" text-anchor="middle">Despachar insumos</text>
<rect x="1824" y="657.5" width="175" height="64" rx="10" fill="#fff2cc" stroke="#d6b656" stroke-width="1.8"/>
<text x="1911.5" y="687.0" font-size="12.5" text-anchor="middle">Registrar entrada</text>
<text x="1911.5" y="702.0" font-size="12.5" text-anchor="middle">al inventario</text>
<rect x="1614" y="450.5" width="175" height="64" rx="10" fill="#fff2cc" stroke="#d6b656" stroke-width="1.8"/>
<text x="1701.5" y="480.0" font-size="12.5" text-anchor="middle">Recibir materiales</text>
<text x="1701.5" y="495.0" font-size="12.5" text-anchor="middle">y herramientas</text>
<rect x="1824" y="450.5" width="175" height="64" rx="10" fill="#fff2cc" stroke="#d6b656" stroke-width="1.8"/>
<text x="1911.5" y="480.0" font-size="12.5" text-anchor="middle">Ejecutar actividades</text>
<text x="1911.5" y="495.0" font-size="12.5" text-anchor="middle">de la etapa</text>
<rect x="2034" y="285.5" width="175" height="64" rx="10" fill="#fff2cc" stroke="#d6b656" stroke-width="1.8"/>
<text x="2121.5" y="315.0" font-size="12.5" text-anchor="middle">Registrar avance</text>
<text x="2121.5" y="330.0" font-size="12.5" text-anchor="middle">y evidencias</text>
<rect x="2034" y="120.5" width="185" height="64" rx="10" fill="#fff2cc" stroke="#d6b656" stroke-width="1.8"/>
<text x="2126.5" y="150.0" font-size="12.5" text-anchor="middle">Consultar dashboard</text>
<text x="2126.5" y="165.0" font-size="12.5" text-anchor="middle">con avance y costos</text>
<polygon points="2290.0,126.5 2316.0,152.5 2290.0,178.5 2264.0,152.5" fill="#f8cecc" stroke="#b85450" stroke-width="2"/>
<path d="M2281.0,143.5 L2299.0,161.5 M2299.0,143.5 L2281.0,161.5" stroke="#b85450" stroke-width="2.4"/>
<rect x="2364" y="120.5" width="185" height="64" rx="10" fill="#fff2cc" stroke="#d6b656" stroke-width="1.8"/>
<text x="2456.5" y="150.0" font-size="12.5" text-anchor="middle">Cerrar proyecto</text>
<text x="2456.5" y="165.0" font-size="12.5" text-anchor="middle">y generar informe</text>
<circle cx="2606.0" cy="152.5" r="22.0" fill="#f8cecc" stroke="#b85450" stroke-width="4"/>
<path d="M 188.0 152.5 L 224 152.5" fill="none" stroke="#333" stroke-width="1.6" marker-end="url(#ar)"/>
<path d="M 399 152.5 L 434 152.5" fill="none" stroke="#333" stroke-width="1.6" marker-end="url(#ar)"/>
<path d="M 609 152.5 L 637 152.5 L 637 317.5 L 644 317.5" fill="none" stroke="#333" stroke-width="1.6" marker-end="url(#ar)"/>
<path d="M 819 317.5 L 854 317.5" fill="none" stroke="#333" stroke-width="1.6" marker-end="url(#ar)"/>
<path d="M 1029 317.5 L 1057 317.5 L 1057 647.5 L 1064 647.5" fill="none" stroke="#333" stroke-width="1.6" marker-end="url(#ar)"/>
<path d="M 1249 647.5 L 1294.0 647.5" fill="none" stroke="#333" stroke-width="1.6" marker-end="url(#ar)"/>
<path d="M 1346.0 647.5 L 1370.0 647.5 L 1370.0 605.5 L 1394 605.5" fill="none" stroke="#333" stroke-width="1.6" marker-end="url(#ar)"/>
<text x="1376.0" y="626.5" font-size="12" font-weight="bold" fill="#333">Sí</text>
<path d="M 1346.0 647.5 L 1370.0 647.5 L 1370.0 689.5 L 1394 689.5" fill="none" stroke="#333" stroke-width="1.6" marker-end="url(#ar)"/>
<text x="1376.0" y="668.5" font-size="12" font-weight="bold" fill="#333">No</text>
<path d="M 1569 689.5 L 1591.5 689.5 L 1591.5 812.5 L 1614 812.5" fill="none" stroke="#333" stroke-width="1.6" marker-end="url(#ar)"/>
<path d="M 1789 812.5 L 1824 812.5" fill="none" stroke="#333" stroke-width="1.6" marker-end="url(#ar)"/>
<path d="M 1999 812.5 L 2027 812.5 L 2027 689.5 L 1824 689.5" fill="none" stroke="#333" stroke-width="1.6" marker-end="url(#ar)"/>
<path d="M 1569 605.5 L 1591.5 605.5 L 1591.5 482.5 L 1614 482.5" fill="none" stroke="#333" stroke-width="1.6" marker-end="url(#ar)"/>
<path d="M 1999 689.5 L 2027 689.5 L 2027 482.5 L 1614 482.5" fill="none" stroke="#333" stroke-width="1.6" marker-end="url(#ar)"/>
<path d="M 1789 482.5 L 1824 482.5" fill="none" stroke="#333" stroke-width="1.6" marker-end="url(#ar)"/>
<path d="M 1999 482.5 L 2027 482.5 L 2027 317.5 L 2034 317.5" fill="none" stroke="#333" stroke-width="1.6" marker-end="url(#ar)"/>
<path d="M 2209 317.5 L 2237 317.5 L 2237 152.5 L 2034 152.5" fill="none" stroke="#333" stroke-width="1.6" marker-end="url(#ar)"/>
<path d="M 2219 152.5 L 2264.0 152.5" fill="none" stroke="#333" stroke-width="1.6" marker-end="url(#ar)"/>
<path d="M 2316.0 152.5 L 2364 152.5" fill="none" stroke="#333" stroke-width="1.6" marker-end="url(#ar)"/>
<text x="2340.0" y="144.5" font-size="12" font-weight="bold" fill="#333">No</text>
<path d="M 2549 152.5 L 2584.0 152.5" fill="none" stroke="#333" stroke-width="1.6" marker-end="url(#ar)"/>
<path d="M 2290.0 126.5 L 2290.0 88 L 731.5 88 L 731.5 285.5" fill="none" stroke="#333" stroke-width="1.6" stroke-dasharray="6,4" marker-end="url(#ar)"/>
<text x="1454.0" y="81" font-size="12" font-weight="bold" fill="#333" text-anchor="middle">Sí, faltan etapas</text>
</svg>